<svg width="937" height="425" viewBox="0 0 937 425" fill="none" xmlns="http://www.w3.org/2000/svg">
<path d="M184.261 245.804H179.679V180.128H215.661V184.351H184.261V212.202H213.909V216.47H184.261V245.804ZM261.751 245.804H225.859V180.128H261.751V184.351H230.441V209.193H259.999V213.415H230.441V241.581H261.751V245.804ZM324.372 245.804H319.745L280.843 187.495H280.484C280.843 194.443 281.023 199.684 281.023 203.218V245.804H276.62V180.128H281.202L320.06 238.347H320.329C320.06 232.956 319.925 227.835 319.925 222.984V180.128H324.372V245.804ZM398.224 212.876C398.224 223.298 395.618 231.549 390.407 237.628C385.196 243.678 378.009 246.702 368.845 246.702C359.711 246.702 352.538 243.678 347.327 237.628C342.116 231.549 339.511 223.268 339.511 212.786C339.511 202.334 342.131 194.114 347.372 188.124C352.643 182.105 359.831 179.095 368.935 179.095C378.099 179.095 385.271 182.12 390.452 188.169C395.633 194.189 398.224 202.424 398.224 212.876ZM344.497 212.876C344.497 222.28 346.594 229.557 350.786 234.708C354.979 239.829 360.999 242.39 368.845 242.39C376.751 242.39 382.786 239.844 386.948 234.753C391.141 229.662 393.237 222.37 393.237 212.876C393.237 203.413 391.141 196.165 386.948 191.134C382.786 186.073 376.781 183.542 368.935 183.542C361.118 183.542 355.084 186.088 350.831 191.179C346.609 196.27 344.497 203.502 344.497 212.876ZM442.247 245.804L417.765 185.159H417.405C417.645 188.873 417.765 192.676 417.765 196.569V245.804H413.362V180.128H420.46L443.73 237.898H443.999L467.269 180.128H474.187V245.804H469.56V196.03C469.56 192.556 469.739 188.963 470.099 185.249H469.739L445.167 245.804H442.247ZM528.677 245.804H492.784V180.128H528.677V184.351H497.366V209.193H526.925V213.415H497.366V241.581H528.677V245.804ZM591.298 245.804H586.671L547.769 187.495H547.409C547.769 194.443 547.948 199.684 547.948 203.218V245.804H543.546V180.128H548.128L586.986 238.347H587.255C586.986 232.956 586.851 227.835 586.851 222.984V180.128H591.298V245.804Z" fill="#F2A2E3"/>
<path d="M659.669 212.696H683.882V242.659C677.533 245.355 670.39 246.702 662.454 246.702C652.092 246.702 644.141 243.782 638.601 237.943C633.09 232.073 630.335 223.777 630.335 213.056C630.335 206.377 631.698 200.463 634.423 195.312C637.178 190.131 641.101 186.133 646.193 183.318C651.314 180.502 657.183 179.095 663.802 179.095C670.959 179.095 677.383 180.413 683.073 183.048L681.232 187.181C675.542 184.545 669.642 183.228 663.532 183.228C654.877 183.228 648.004 185.908 642.913 191.269C637.852 196.599 635.321 203.802 635.321 212.876C635.321 222.759 637.732 230.201 642.554 235.202C647.376 240.174 654.458 242.659 663.802 242.659C669.851 242.659 674.987 241.806 679.21 240.099V217.009H659.669V212.696ZM704.995 217.189V245.804H700.413V180.128H716.046C724.192 180.128 730.211 181.64 734.105 184.665C737.998 187.66 739.945 192.182 739.945 198.232C739.945 202.634 738.777 206.347 736.441 209.372C734.135 212.397 730.616 214.568 725.884 215.886L743.718 245.804H738.237L721.302 217.189H704.995ZM704.995 213.235H717.529C723.069 213.235 727.366 212.008 730.421 209.552C733.476 207.066 735.003 203.413 735.003 198.591C735.003 193.59 733.506 189.951 730.511 187.675C727.516 185.399 722.635 184.261 715.866 184.261H704.995V213.235ZM810.337 212.876C810.337 223.298 807.732 231.549 802.521 237.628C797.31 243.678 790.122 246.702 780.958 246.702C771.824 246.702 764.652 243.678 759.441 237.628C754.23 231.549 751.624 223.268 751.624 212.786C751.624 202.334 754.245 194.114 759.486 188.124C764.756 182.105 771.944 179.095 781.048 179.095C790.212 179.095 797.385 182.12 802.566 188.169C807.747 194.189 810.337 202.424 810.337 212.876ZM756.611 212.876C756.611 222.28 758.707 229.557 762.9 234.708C767.092 239.829 773.112 242.39 780.958 242.39C788.864 242.39 794.899 239.844 799.062 234.753C803.254 229.662 805.351 222.37 805.351 212.876C805.351 203.413 803.254 196.165 799.062 191.134C794.899 186.073 788.894 183.542 781.048 183.542C773.232 183.542 767.197 186.088 762.945 191.179C758.722 196.27 756.611 203.502 756.611 212.876ZM873.767 180.128V222.624C873.767 230.171 871.581 236.071 867.208 240.323C862.836 244.576 856.741 246.702 848.925 246.702C841.318 246.702 835.374 244.576 831.091 240.323C826.838 236.041 824.712 230.081 824.712 222.444V180.128H829.339V222.624C829.339 228.943 831.091 233.87 834.595 237.403C838.099 240.907 843.055 242.659 849.464 242.659C855.723 242.659 860.575 240.937 864.019 237.493C867.463 234.019 869.185 229.213 869.185 223.073V180.128H873.767ZM931.222 198.995C931.222 205.344 929.066 210.211 924.753 213.595C920.441 216.979 914.331 218.671 906.425 218.671H896.273V245.804H891.691V180.128H907.773C923.405 180.128 931.222 186.417 931.222 198.995ZM896.273 214.718H905.302C912.699 214.718 918.045 213.505 921.339 211.079C924.633 208.623 926.28 204.655 926.28 199.175C926.28 194.114 924.723 190.37 921.609 187.944C918.494 185.489 913.672 184.261 907.144 184.261H896.273V214.718Z" fill="#C8289B"/>
<mask id="mask0" mask-type="alpha" maskUnits="userSpaceOnUse" x="-1" y="4" width="439" height="421">
<path d="M387.5 45.0001C387.833 25.3334 336.9 -9.09993 130.5 10.5001L70 54.0001L14 131.5L0 290L123.5 423.5L353 412.5L436.5 309.5L329.5 248L336.5 174.5L423.5 138L387.5 45.0001Z" fill="#C4C4C4" stroke="black"/>
</mask>
<g mask="url(#mask0)">
<path d="M259.391 376.054C353.086 362.617 418.147 275.769 404.71 182.073C391.272 88.3782 304.424 23.3166 210.729 36.7542C117.033 50.1919 51.9718 137.04 65.4095 230.735C78.8471 324.43 165.695 389.492 259.391 376.054Z" stroke="#C8289B" stroke-width="44" stroke-linecap="round" stroke-linejoin="round" stroke-dasharray="1 60"/>
</g>
<mask id="mask1" mask-type="alpha" maskUnits="userSpaceOnUse" x="72" y="-1" width="343" height="380">
<path d="M414 141C408.5 131 352.5 88.8 172.5 0L155.5 58L94.5 107L73 193L83 307L246.5 378L400 288L332 249.5C333.333 227.167 336.5 182.5 338.5 182.5C340.5 182.5 389.667 154.833 414 141Z" fill="#FF0000" stroke="black"/>
</mask>
<g mask="url(#mask1)">
<path d="M236.118 333.268C306.048 337.123 365.862 283.559 369.716 213.629C373.571 143.7 320.007 83.8859 250.077 80.0312C180.148 76.1765 120.334 129.741 116.479 199.67C112.625 269.599 166.189 329.413 236.118 333.268Z" stroke="#F2A2E3" stroke-width="24" stroke-linecap="round" stroke-linejoin="round" stroke-dasharray="1 60"/>
</g>
</svg>
